# xmcd CD database file
#
# Track frame offsets:
#	150
#	16882
#	30427
#	50810
#	71435
#	91572
#	105672
#	125695
#	138732
#	150972
#	163280
#	177490
#	189450
#	200917
#	217822
#	228030
#
# Disc length: 3309 seconds
#
# Revision: 0
# Processed by: cddbd v1.5.1PL0 Copyright (c) Steve Scherf et al.
# Submitted via: CDex 1.51
#
DISCID=d60ceb10
DTITLE=陣内恭介（岸祐二）・他 - スーパー戦隊主題歌・挿入歌大全集IV DISC3
DYEAR=1900
DGENRE=アニメ
TTITLE0=速水けんたろう/アクション！オーレンジャー
TTITLE1=アチャとコチャ/アチャ・コチャ・チャチャチャ
TTITLE2=/真赤な闘魂 レッドパンチャー！
TTITLE3=速水けんたろう/オーレンジャー・スピリット
TTITLE4=影山ヒロノブ/VICTORY FIGHT?勝利をつかめ！オーレンジャー?
TTITLE5=速水けんたろう/緊急発進！！オーレンジャー
TTITLE6=陣内恭介（岸祐二）・他/ジングルベル（フルアクセルヴァージョン）
TTITLE7=上杉実（福田佳弘）・他/赤鼻のトナカイ
TTITLE8=士乃原菜摘（本橋由香）・他/サンタが町にやってくる
TTITLE9=陣内恭介（岸祐二）・他/すてきな雪景色
TTITLE10=土門直樹（増島愛浩）・他/きよしこの夜
TTITLE11=陣内恭介（岸祐二）・他/サンタクロースがやってくる
TTITLE12=八神洋子（来栖あつこ）・他/前歯のない子のクリスマス
TTITLE13=陣内恭介（岸祐二）・他/ホワイト・クリスマス
TTITLE14=八神洋子（来栖あつこ）・他/おめでとうクリスマス
TTITLE15="陣内恭介（岸祐二）・他/Merry Xmas！ from カーレンジャー
EXTD=
EXTT0=
EXTT1=
EXTT2=
EXTT3=
EXTT4=
EXTT5=
EXTT6=
EXTT7=
EXTT8=
EXTT9=
EXTT10=
EXTT11=
EXTT12=
EXTT13=
EXTT14=
EXTT15=
PLAYORDER=
